<?xml version="1.0" standalone="no"?>
<!DOCTYPE svg PUBLIC "-//W3C//DTD SVG 1.0//EN" "http://www.w3.org/TR/2001/REC-SVG-20010904/DTD/svg10.dtd">
<svg xmlns="http://www.w3.org/2000/svg" xmlns:xlink="http://www.w3.org/1999/xlink" id="body_1" width="100" height="98">

<g transform="matrix(0.16025642 0 0 0.15960912 0 0)">
	<g transform="matrix(0.99927986 0 0 0.99973345 0 0)">
        <path transform="matrix(1 0 0 1 -287.77515 -142.91814)"  d="M742.5852 257.0319C 742.5093 280.87448 740.89594 304.68692 737.7551 328.3219C 737.64526 329.1519 737.52515 329.9819 737.4148 330.8119L737.4148 330.8119L514.135 330.8119C 513.47485 329.99188 512.82495 329.1619 512.19507 328.3219C 510.09497 325.5419 508.12524 322.6819 506.3152 319.7219C 497.615 305.46188 493.57495 288.7319 497.4651 277.1519L497.4651 277.1519L497.5349 276.9719C 498.37448 274.43622 499.7066 272.09134 501.45483 270.0719C 510.41483 259.8719 528.655 261.4619 545.2448 269.5619C 530.3151 253.40189 518.38495 232.9719 517.38495 214.68188C 516.40497 196.84189 525.66473 184.04193 535.7248 173.15189C 536.0549 172.79189 536.38495 172.44188 536.715 172.09189C 536.8752 171.9119 537.0451 171.74188 537.2048 171.56189C 545.0549 163.26189 554.215 155.07188 567.5451 155.98193C 582.16473 156.98193 598.43524 169.13193 609.8752 183.33194C 621.3152 197.52194 628.9548 213.67194 636.695 229.43195C 644.445 245.18195 652.8249 261.33194 665.195 274.76196C 648.425 253.79196 634.8649 229.90196 629.7751 206.62196C 624.68524 183.34196 628.925 160.93196 643.7048 149.87196C 648.1923 146.61699 653.3942 144.48416 658.8752 143.65196C 659.51483 143.54196 660.16473 143.45197 660.8249 143.37196C 674.5549 141.73201 690.98505 146.39197 705.00507 157.67197C 720.445 170.09196 731.2048 188.57196 736.60516 206.14197C 742.0051 223.71187 742.6648 240.65187 742.5852 257.0319z" stroke="none" fill="#F2F2F2" fill-rule="nonzero" />
        <path transform="matrix(1 0 0 1 -287.77515 -142.91814)"  d="M596.9148 330.81183L592.64526 330.81183C 591.2849 329.97186 589.9182 329.14188 588.54517 328.32184C 587.69507 327.79184 586.83514 327.28183 585.97485 326.76184C 571.7649 318.19183 557.4684 309.97516 543.0852 302.11185C 542.2919 301.7717 541.85443 300.9137 542.0452 300.07184C 542.0604 300.01837 542.08417 299.9677 542.11554 299.92184C 542.31525 299.54184 542.76544 299.38184 543.42554 299.70184C 545.2053 300.58185 546.99536 301.46185 548.77515 302.36185C 563.32544 309.6218 577.81555 317.24847 592.24536 325.24185C 592.54517 325.42184 592.84546 325.61185 593.14526 325.79184C 594.20483 329.15186 595.55493 329.9819 596.9148 330.81183z" stroke="none" fill="#FFFFFF" fill-rule="nonzero" />
        <path transform="matrix(1 0 0 1 -287.77515 -142.91814)"  d="M651.9651 330.81183L649.32495 330.81183C 648.72485 329.98187 648.135 329.15182 647.535 328.32184C 633.4354 308.78186 619.33875 289.24185 605.245 269.70184C 605.1084 269.52975 605.0064 269.3328 604.9447 269.12186C 604.745 268.41187 605.265 267.99185 605.93494 268.06186C 606.5064 268.14023 607.0165 268.46085 607.33484 268.94186C 620.2748 286.8819 633.2115 304.81522 646.1449 322.74185C 647.6049 324.76184 649.0648 326.79184 650.5248 328.81186C 650.77515 329.15186 651.37524 329.9819 651.9651 330.81183z" stroke="none" fill="#FFFFFF" fill-rule="nonzero" />
        <path transform="matrix(1 0 0 1 -287.77515 -142.91814)"  d="M710.69507 315.15186C 710.5852 319.60187 710.3152 323.98184 709.95483 328.32187C 709.885 329.15186 709.815 329.98187 709.7448 330.81186L709.7448 330.81186L706.9748 330.81186C 707.0549 329.9819 707.13495 329.15186 707.2048 328.32187C 707.75507 322.05188 708.13495 315.71188 708.15497 309.20187C 708.1278 291.15338 706.2683 273.1547 702.60516 255.48187C 698.71 236.45291 693.16565 217.79912 686.03485 199.73187C 678.5502 180.6764 669.5514 162.25073 659.1252 144.63187C 658.929 144.34485 658.8405 143.99779 658.8752 143.65187C 658.98505 142.86188 660.03485 142.62187 660.8249 143.37187C 660.9809 143.51901 661.1155 143.68732 661.2248 143.87187C 662.51483 146.06187 663.7816 148.25854 665.0251 150.46187C 675.0709 168.18085 683.6885 186.67323 690.7951 205.76187C 697.5639 223.89034 702.7402 242.57465 706.26483 261.60187C 709.5654 279.25388 711.0499 297.19745 710.69507 315.15186z" stroke="none" fill="#FFFFFF" fill-rule="nonzero" />
        <path transform="matrix(1 0 0 1 -287.77515 -142.91814)"  d="M903.4949 328.32184L296.49487 328.32184C 291.68082 328.3262 287.77936 332.22778 287.77515 337.04184L287.77515 337.04184L287.77515 748.3618C 287.7794 753.17584 291.68082 757.0774 296.49487 757.0818L296.49487 757.0818L903.4949 757.0818C 906.0465 757.0819 908.46985 755.96344 910.12524 754.0218C 910.19446 753.94666 910.258 753.86646 910.31525 753.7818C 910.83575 753.1454 911.2572 752.434 911.56525 751.67175C 912.00397 750.62354 912.2283 749.49805 912.2249 748.36176L912.2249 748.36176L912.2249 337.0419C 912.21967 332.22424 908.31256 328.32156 903.4949 328.32184zM909.7351 748.3618C 909.7361 749.57837 909.3777 750.7682 908.70483 751.7818C 908.1071 752.674 907.29596 753.4028 906.345 753.9018C 905.464 754.357 904.48645 754.5936 903.4949 754.5918L903.4949 754.5918L296.49487 754.5918C 293.05588 754.58765 290.26904 751.80084 290.26486 748.3618L290.26486 748.3618L290.26486 337.0419C 290.269 333.60287 293.05585 330.81604 296.49487 330.81186L296.49487 330.81186L903.4949 330.81186C 906.93744 330.8114 909.7299 333.5993 909.7351 337.0419z" stroke="none" fill="#3F3D56" fill-rule="nonzero" />
        <path d="M1.24265 220.35292L623.19946 220.35292L623.19946 222.84573L1.24265 222.84573L1.24265 220.35292z" stroke="none" fill="#3F3D56" fill-rule="nonzero" />
        <path d="M29.909988 204.09981C 29.909988 206.16492 29.179861 207.92761 27.719604 209.38786C 26.25935 210.84813 24.496666 211.57825 22.43155 211.57825C 20.366436 211.57825 18.60375 210.84813 17.143494 209.38786C 15.683239 207.92761 14.953111 206.16492 14.95311 204.09981C 14.953111 202.0347 15.683239 200.27202 17.143494 198.81175C 18.60375 197.3515 20.366436 196.62137 22.43155 196.62137C 24.496666 196.62137 26.25935 197.3515 27.719604 198.81175C 29.179861 200.27202 29.909988 202.0347 29.909988 204.09981C 29.909988 204.18683 29.90847 204.27383 29.905434 204.3608" stroke="none" fill="#3F3D56" fill-rule="nonzero" />
        <path d="M51.4105 204.09981C 51.4105 206.16492 50.680374 207.92761 49.220116 209.38786C 47.75986 210.84813 45.997177 211.57825 43.93206 211.57825C 41.866947 211.57825 40.104263 210.84813 38.644005 209.38786C 37.18375 207.92761 36.45362 206.16492 36.45362 204.09981C 36.45362 202.0347 37.18375 200.27202 38.644005 198.81175C 40.104263 197.3515 41.866947 196.62137 43.93206 196.62137C 45.997177 196.62137 47.75986 197.3515 49.220116 198.81175C 50.680374 200.27202 51.4105 202.0347 51.4105 204.09981C 51.4105 204.18683 51.40898 204.27383 51.405945 204.3608" stroke="none" fill="#3F3D56" fill-rule="nonzero" />
        <path d="M72.91101 204.09981C 72.91101 206.16492 72.180885 207.92761 70.72063 209.38786C 69.260376 210.84813 67.49769 211.57825 65.43257 211.57825C 63.367462 211.57825 61.604774 210.84813 60.144516 209.38786C 58.68426 207.92761 57.954132 206.16492 57.954132 204.09981C 57.954132 202.0347 58.68426 200.27202 60.144516 198.81175C 61.604774 197.3515 63.367462 196.62137 65.43257 196.62137C 67.49769 196.62137 69.260376 197.3515 70.72063 198.81175C 72.180885 200.27202 72.91101 202.0347 72.91101 204.09981C 72.91101 204.18683 72.90949 204.27383 72.906456 204.3608" stroke="none" fill="#3F3D56" fill-rule="nonzero" />
        <path transform="matrix(1 0 0 1 -287.77515 -142.91814)"  d="M564.75226 575.1917C 557.2729 570.3232 553.5528 559.0082 555.3854 548.66034C 557.21796 538.3125 564.1197 529.3996 572.39307 525.55585C 580.5684 521.8711 590.0488 522.545 597.6207 527.3492C 605.2077 531.98846 615.938 534.5296 619.54095 543.81165C 622.30975 550.94464 618.7979 565.42914 615.0715 572.3573C 611.85065 578.3455 605.73016 581.0847 599.98016 582.2748C 587.10864 584.8998 573.7313 581.81323 563.31116 573.814L563.31116 573.814L564.75226 575.1917z" stroke="none" fill="#2F2E41" fill-rule="nonzero" />
        <path d="M273.076 487.234L267.096 497.544L266.306 498.904L265.156 500.904L247.526 500.904L248.716 498.904L251.796 493.714L258.976 481.594L267.106 484.844L273.076 487.234" stroke="none" fill="#FFB8B8" fill-rule="nonzero" />
        <path transform="matrix(1 0 0 1 -287.77515 -142.91814)"  d="M533.9812 643.82184L530.7612 641.82184L530.3612 641.57184L550.5712 604.7418C 552.32684 601.522 555.29755 599.1382 558.8212 598.1218C 561.0236 597.46594 563.3565 597.37994 565.60126 597.8718C 566.9111 598.14844 568.1718 598.62036 569.34125 599.27185C 569.8226 599.53577 570.2868 599.82965 570.73126 600.15186C 572.44037 601.3501 573.8446 602.9325 574.83124 604.77185C 577.22253 609.156 577.06195 614.4894 574.41125 618.72186L574.41125 618.72186L566.6213 631.1719L559.9613 641.8219L558.7113 643.8219L533.9813 643.8219L533.9812 643.82184z" stroke="none" fill="#2F2E41" fill-rule="nonzero" />
        <path d="M322.69116 420.78418C 322.69116 427.56653 320.29324 433.35565 315.4974 438.15146C 310.70157 442.94733 304.91248 445.3452 298.13013 445.3452C 291.34778 445.3452 285.5587 442.94733 280.76285 438.15146C 275.967 433.35565 273.5691 427.56653 273.5691 420.78418C 273.5691 414.00183 275.967 408.21277 280.76285 403.4169C 285.5587 398.6211 291.34778 396.22314 298.13013 396.22314C 304.91248 396.22314 310.70157 398.6211 315.4974 403.4169C 320.29324 408.21277 322.69116 414.00183 322.69116 420.78418C 322.69116 421.07 322.6862 421.3557 322.6762 421.64136" stroke="none" fill="#FFB8B8" fill-rule="nonzero" />
        <path transform="matrix(1 0 0 1 -287.77515 -142.91814)"  d="M610.56134 643.82184L555.3513 643.82184L555.6013 643.1118C 555.4612 642.6818 555.3312 642.25183 555.2112 641.82184C 555.0813 641.3718 554.97095 640.91187 554.87134 640.46185C 553.9742 636.2757 553.97754 631.9466 554.8811 627.76184C 557.9314 612.78186 570.1013 600.6118 570.1013 600.6118C 570.31134 600.45184 570.52124 600.3018 570.7312 600.1518C 572.5416 598.82623 574.506 597.72485 576.5813 596.87177C 585.6213 593.12177 595.1013 594.6318 601.47095 596.5718C 603.6894 597.2427 605.8581 598.068 607.9612 599.04175C 608.7009 599.3917 609.1013 599.61176 609.1013 599.61176L609.1013 599.61176L609.7312 618.8218L610.49097 641.8218L610.56134 643.82184z" stroke="none" fill="#6C63FF" fill-rule="nonzero" />
        <path transform="matrix(1 0 0 1 -287.77515 -142.91814)"  d="M636.1014 641.82184L631.88116 620.3618L627.6214 598.72186C 627.2578 596.89264 625.8079 595.4747 623.971 595.15186L623.971 595.15186L615.0511 593.6119L606.7513 592.1819C 605.11957 591.8879 603.4595 592.52344 602.4412 593.8319C 601.81744 594.6094 601.47546 595.5752 601.471 596.5719C 601.47125 597.18756 601.59717 597.7967 601.8411 598.3619C 606.1712 608.46185 606.2513 624.4519 605.1512 641.8219C 605.1014 642.4819 605.06134 643.1519 605.01105 643.8219L605.01105 643.8219L636.5013 643.8219L636.1014 641.82184z" stroke="none" fill="#2F2E41" fill-rule="nonzero" />
        <path transform="matrix(1 0 0 1 -287.77515 -142.91814)"  d="M576.58136 596.8718C 576.2083 595.3935 575.1161 594.2023 573.6756 593.7026C 572.2351 593.20294 570.63983 593.46204 569.43146 594.39185L569.43146 594.39185L565.6014 597.8718L549.9212 612.15186C 549.43243 612.59045 549.0495 613.13403 548.8011 613.7419C 547.03107 617.97186 543.58136 626.3219 539.5711 636.6319C 538.9212 638.3119 538.2513 640.04193 537.56134 641.8219C 537.3211 642.4819 537.06134 643.1519 536.8011 643.8219L536.8011 643.8219L562.6414 643.8219C 562.85144 643.1519 563.06134 642.4819 563.2713 641.8219C 564.4212 638.1919 565.5413 634.6319 566.6214 631.1719C 569.78107 621.1219 572.63116 611.9919 574.8314 604.77185C 575.4413 602.77185 575.9979 600.9252 576.50134 599.2319C 576.73627 598.4661 576.7639 597.6518 576.58136 596.8718z" stroke="none" fill="#2F2E41" fill-rule="nonzero" />
        <path d="M354.126 500.904L355.796 500.904L355.566 500.344L354.956 498.904L345.546 476.574L344.106 477.444L332.546 484.434L338.476 498.904L339.296 500.904L348.726 500.904L354.126 500.904" stroke="none" fill="#FFB8B8" fill-rule="nonzero" />
        <path transform="matrix(1 0 0 1 -287.77515 -142.91814)"  d="M632.36115 601.78186C 629.71576 594.8572 622.0784 591.25256 615.0511 593.6119C 614.6189 593.7551 614.1949 593.922 613.78107 594.1119C 611.412 595.1687 609.3932 596.87885 607.96124 599.0419C 607.37683 599.9055 606.8967 600.8353 606.53107 601.8119C 605.2204 605.23553 605.33203 609.04095 606.8411 612.3819L606.8411 612.3819L609.73126 618.8219L620.0711 641.8219L620.971 643.8219L641.9012 643.8219L643.3411 643.2619L647.08136 641.8219L647.6014 641.6219L632.36115 601.78186z" stroke="none" fill="#2F2E41" fill-rule="nonzero" />
        <path transform="matrix(1 0 0 1 -287.77515 -142.91814)"  d="M605.19543 535.4936C 606.9555 536.02124 608.8506 535.30206 609.8175 533.73956C 610.7201 532.1698 610.845 530.2706 610.15576 528.5962C 609.4588 526.9468 608.36035 525.498 606.96045 524.38165C 605.3707 522.9431 603.43536 521.9411 601.343 521.47327C 599.2279 521.0183 597.01953 521.50385 595.29034 522.8039C 593.5736 524.16187 592.8515 526.425 593.4644 528.5263C 594.1003 530.37067 595.8229 531.6063 597.54315 532.5265C 600.9563 534.3486 604.7201 535.4186 608.5813 535.6645L608.5813 535.6645L605.19543 535.4936z" stroke="none" fill="#2F2E41" fill-rule="nonzero" />
        <path transform="matrix(1 0 0 1 -287.77515 -142.91814)"  d="M609.9734 562.9687C 606.0247 563.51306 606.53174 561.50323 604.9502 557.84436C 603.36865 554.1855 601.25183 549.84204 597.283 549.47144C 594.0306 549.1677 591.3508 551.7678 588.71594 553.6986C 584.01965 557.13995 577.6905 558.82434 572.2466 556.7598C 566.8027 554.6953 563.0198 548.2073 565.0853 542.7638C 566.385 539.7255 568.8855 537.36163 571.9918 536.23456C 575.0749 535.1385 578.3493 534.6836 581.6144 534.8979C 588.8761 535.1301 595.9983 536.9533 602.47833 540.2387C 606.95056 542.5111 611.3042 545.762 613.0008 550.4828C 614.6974 555.20355 615.8138 561.8375 610.96265 563.11456L610.96265 563.11456L609.9734 562.9687z" stroke="none" fill="#2F2E41" fill-rule="nonzero" />
        <path transform="matrix(1 0 0 1 -287.77515 -142.91814)"  d="M603.17706 522.50916C 601.22516 519.1119 602.8363 514.4503 606.02985 512.1803C 609.2234 509.91028 613.50726 509.68765 617.3181 510.59808C 624.9883 512.5302 631.04767 518.40326 633.2184 526.00934C 634.83545 531.95056 633.874 538.33185 635.2435 544.33496C 636.71906 550.80286 640.8009 556.3739 646.52344 559.73016C 652.2459 563.0864 659.10065 563.9296 665.466 562.06036C 669.56793 560.8558 673.7366 557.9271 674.14 553.6711C 675.0106 563.69135 669.4128 573.1561 660.21234 577.22C 654.92725 579.4246 649.03186 579.56836 643.30725 579.42145C 639.5766 579.3257 635.7609 579.1011 632.3194 577.6578C 627.509 575.464 623.7845 571.4257 621.986 566.454C 620.2337 561.50714 619.76056 556.1976 620.61053 551.0188C 621.17365 546.9905 622.29407 543.0422 622.60754 538.9868C 622.921 534.93146 622.3265 530.6013 619.82635 527.3929C 617.32623 524.18445 612.5505 522.5457 608.9959 524.5229C 607.5674 525.3175 606.4149 526.6156 604.86273 527.12836C 603.31055 527.6411 601.1107 526.74 601.25195 525.11145L601.25195 525.11145L603.17706 522.50916z" stroke="none" fill="#2F2E41" fill-rule="nonzero" />
        <path transform="matrix(1 0 0 1 -287.77515 -142.91814)"  d="M770.78107 643.82184L770.97107 641.82184L776.6112 583.14185C 778.4599 581.69434 780.44617 580.43164 782.5414 579.3718C 794.15125 573.52185 805.35144 576.32184 811.411 578.7418C 813.0171 579.37054 814.56903 580.12976 816.05115 581.01184L816.05115 581.01184L819.35144 641.82184L819.4613 643.82184L770.78107 643.82184z" stroke="none" fill="#6C63FF" fill-rule="nonzero" />
        <path d="M533.97986 400.0454C 533.97986 406.8278 531.582 412.61688 526.78613 417.4127C 521.9903 422.20856 516.2012 424.60648 509.41885 424.60645C 502.63654 424.60648 496.8474 422.20856 492.05157 417.4127C 487.25574 412.61688 484.85785 406.8278 484.85782 400.0454C 484.85785 393.2631 487.25574 387.474 492.05157 382.67813C 496.8474 377.8823 502.63654 375.48438 509.41885 375.48438C 516.2012 375.48438 521.9903 377.8823 526.78613 382.67813C 531.582 387.474 533.97986 393.2631 533.97986 400.0454C 533.97986 400.33124 533.97485 400.61694 533.9649 400.9026" stroke="none" fill="#FFB8B8" fill-rule="nonzero" />
        <path transform="matrix(1 0 0 1 -287.77515 -142.91814)"  d="M817.1222 557.9395C 820.8561 554.00415 821.8418 548.20264 819.6172 543.2549C 817.3926 538.3072 812.3987 535.1942 806.97687 535.3754C 803.5806 535.48895 800.3804 536.87885 797.1389 537.89886C 792.22656 539.56995 786.98584 540.0419 781.854 539.27527C 776.69147 538.47375 772.03284 535.723 768.8376 531.5896C 765.7988 527.4131 764.8512 521.6202 766.998 516.9224C 769.4763 511.499 775.26556 508.5106 780.7117 506.0825C 782.90784 504.98297 785.2537 504.21222 787.6741 503.79495C 790.1252 503.38785 792.6351 504.02057 794.6004 505.54095C 796.1308 506.85724 797.0278 508.83575 798.6932 509.9765C 800.5679 511.2606 803.00305 511.2269 805.26404 511.45322C 815.69147 512.497 824.3851 519.88416 827.0985 530.00635C 829.8119 540.12854 825.9788 550.87366 817.4716 556.9932L817.4716 556.9932L817.1222 557.9395z" stroke="none" fill="#2F2E41" fill-rule="nonzero" />
        <path transform="matrix(1 0 0 1 -287.77515 -142.91814)"  d="M786.201 589.53186L782.5413 579.3719L782.3128 578.7386C 782.0933 578.1302 781.60626 577.6565 780.992 577.4541C 780.3777 577.2517 779.70447 577.3431 779.1663 577.7019L779.1663 577.7019L775.01105 580.4719C 775.01105 580.4719 748.36115 580.4719 746.22107 596.4619C 746.1913 596.7119 746.15125 596.99194 746.12146 597.29193C 746.1198 597.3056 746.1164 597.31903 746.1112 597.3319C 745.8412 598.3819 740.8114 617.8219 736.4911 641.8219C 736.37146 642.4819 736.25134 643.1519 736.1312 643.8219L736.1312 643.8219L794.0414 643.8219L794.0414 643.8217C 795.9256 619.71277 794.8714 597.297 786.201 589.53186z" stroke="none" fill="#2F2E41" fill-rule="nonzero" />
        <path transform="matrix(1 0 0 1 -287.77515 -142.91814)"  d="M855.28107 641.82184C 852.1214 617.20184 847.6014 597.2919 847.6014 597.2919C 847.5614 596.9919 847.5213 596.71185 847.491 596.46185C 845.36115 580.47186 818.71124 580.47186 818.71124 580.47186L818.71124 580.47186L814.5584 577.70325C 814.0199 577.3443 813.34625 577.25305 812.7317 577.4558C 812.1171 577.6586 811.63 578.1329 811.41095 578.7418L811.41095 578.7418L807.5213 589.5318C 798.8509 597.2969 797.7967 619.7124 799.68097 643.8211L799.68097 643.8211L799.68146 643.8218L855.53107 643.8218C 855.451 643.15186 855.36115 642.4818 855.28107 641.82184z" stroke="none" fill="#2F2E41" fill-rule="nonzero" />
        <path transform="matrix(1 0 0 1 -287.77515 -142.91814)"  d="M386.201 585.76184L380.26105 641.82184L380.05106 643.82184L363.9813 643.82184C 364.17123 643.1718 364.36118 642.50183 364.56137 641.82184C 369.12143 626.1818 375.33136 603.3518 374.66098 597.3018C 373.61118 587.8618 380.96127 584.7118 380.96127 584.7118L380.96127 584.7118L381.42126 584.8018L386.201 585.76184z" stroke="none" fill="#6C63FF" fill-rule="nonzero" />
        <path d="M148.90366 400.9791C 148.90366 407.76144 146.50574 413.55054 141.7099 418.34637C 136.91406 423.1422 131.12497 425.54013 124.34263 425.54013C 117.56029 425.54013 111.7712 423.1422 106.97536 418.34637C 102.17953 413.55054 99.78161 407.76144 99.7816 400.9791C 99.78161 394.19675 102.17953 388.40765 106.97536 383.61182C 111.7712 378.81598 117.56029 376.41806 124.34263 376.41806C 131.12497 376.41806 136.91406 378.81598 141.7099 383.61182C 146.50574 388.40765 148.90366 394.19675 148.90366 400.9791C 148.90366 401.26492 148.89868 401.55066 148.8887 401.83627" stroke="none" fill="#A0616A" fill-rule="nonzero" />
        <path transform="matrix(1 0 0 1 -287.77515 -142.91814)"  d="M443.911 631.9218C 442.67252 634.20514 441.65784 636.603 440.88123 639.0818C 440.59122 639.9618 440.3114 640.8818 440.05115 641.8218C 439.8612 642.4718 439.69128 643.1418 439.52136 643.8218L439.52136 643.8218L374.741 643.8218C 374.83133 643.1618 374.91092 642.49176 375.00125 641.8218C 378.3113 615.67175 380.991 589.1318 381.42117 584.80176C 381.46118 584.3918 381.48123 584.18176 381.48123 584.18176C 420.30106 563.72174 448.63113 590.48175 448.63113 590.48175C 448.63113 590.48175 448.67114 590.67175 448.73123 591.04175C 449.3514 594.78186 452.51108 616.6218 443.911 631.9218z" stroke="none" fill="#6C63FF" fill-rule="nonzero" />
        <path transform="matrix(1 0 0 1 -287.77515 -142.91814)"  d="M440.8812 639.08185L436.56137 629.82184L437.61118 593.1018L448.7313 591.04175L449.12143 590.9718C 454.86917 594.31305 459.31696 599.5011 461.74106 605.6918C 463.9012 611.0918 468.01105 627.3318 471.4813 641.8218C 471.64145 642.49176 471.80112 643.1618 471.9613 643.8218L471.9613 643.8218L443.09113 643.8218L442.16095 641.8218L440.8812 639.08185z" stroke="none" fill="#6C63FF" fill-rule="nonzero" />
        <path transform="matrix(1 0 0 1 -287.77515 -142.91814)"  d="M480.39145 478.82184L338.37146 478.82184C 332.02884 478.82944 326.88895 483.9692 326.88123 490.31183L326.88123 490.31183L326.88123 632.33185C 326.88895 638.6745 332.02884 643.8143 338.37146 643.82184L338.37146 643.82184L480.39148 643.82184C 486.73547 643.8177 491.87723 638.67584 491.88123 632.33185L491.88123 632.33185L491.88123 490.31183C 491.87723 483.9678 486.73547 478.82596 480.39145 478.82184zM489.8812 632.33185C 489.87686 637.5711 485.63074 641.8174 480.39145 641.82184L480.39145 641.82184L338.37146 641.82184C 333.1335 641.8139 328.88928 637.56976 328.88123 632.33185L328.88123 632.33185L328.88123 490.31183C 328.88928 485.07388 333.1335 480.82974 338.37146 480.82184L338.37146 480.82184L480.39148 480.82184C 485.63077 480.82632 489.8769 485.07254 489.88123 490.31183zM380.26108 641.82184L380.0511 643.82184L439.5213 643.82184C 439.69122 643.14185 439.86115 642.47186 440.0511 641.82184z" stroke="none" fill="#3F3D56" fill-rule="nonzero" />
        <path transform="matrix(1 0 0 1 -287.77515 -142.91814)"  d="M671.0013 478.82184L528.98126 478.82184C 522.6386 478.82944 517.4987 483.9692 517.491 490.31183L517.491 490.31183L517.491 632.33185C 517.4987 638.6745 522.6386 643.8143 528.98126 643.82184L528.98126 643.82184L671.0013 643.82184C 677.3453 643.8177 682.487 638.67584 682.491 632.33185L682.491 632.33185L682.491 490.31183C 682.48706 483.96786 677.3453 478.826 671.0013 478.82184zM680.491 632.33185C 680.4867 637.57117 676.2406 641.8174 671.0013 641.82184L671.0013 641.82184L528.98126 641.82184C 523.74335 641.8139 519.4991 637.56976 519.491 632.33185L519.491 632.33185L519.491 490.31183C 519.4991 485.07388 523.74335 480.8297 528.98126 480.82184L528.98126 480.82184L671.0013 480.82184C 676.2406 480.82632 680.4867 485.07254 680.491 490.31183zM555.21124 641.82184C 555.33136 642.25183 555.4614 642.6819 555.6014 643.1118L555.6014 643.1118L555.3514 643.82184L605.01105 643.82184C 605.06134 643.15186 605.1014 642.4818 605.1512 641.82184z" stroke="none" fill="#3F3D56" fill-rule="nonzero" />
        <path transform="matrix(1 0 0 1 -287.77515 -142.91814)"  d="M861.6214 478.82184L719.6014 478.82184C 713.2572 478.82578 708.11523 483.96768 708.11115 490.31183L708.11115 490.31183L708.11115 632.33185C 708.11523 638.676 713.2572 643.8179 719.6014 643.82184L719.6014 643.82184L861.6214 643.82184C 867.96387 643.8141 873.1035 638.6743 873.11115 632.33185L873.11115 632.33185L873.11115 490.31183C 873.1035 483.96936 867.96387 478.82962 861.6214 478.82184zM871.11115 632.33185C 871.10333 637.5697 866.85925 641.8139 861.6214 641.82184L861.6214 641.82184L719.6014 641.82184C 714.36194 641.81757 710.11554 637.5713 710.11115 632.33185L710.11115 632.33185L710.11115 490.31183C 710.11554 485.0724 714.36194 480.8261 719.6014 480.82184L719.6014 480.82184L861.6214 480.82184C 866.85925 480.82977 871.10333 485.074 871.11115 490.31183zM794.1912 641.82184C 794.1414 642.4818 794.0911 643.15186 794.0413 643.82184L794.0413 643.82184L837.13116 643.82184C 837.21124 643.16187 837.3011 642.4918 837.38116 641.82184z" stroke="none" fill="#3F3D56" fill-rule="nonzero" />
        <path transform="matrix(1 0 0 1 -287.77515 -142.91814)"  d="M764.99615 701.82184L434.99615 701.82184C 432.13803 701.82184 429.497 700.29706 428.06796 697.82184C 426.6389 695.3466 426.6389 692.29706 428.06796 689.82184C 429.497 687.3466 432.13803 685.82184 434.99615 685.82184L434.99615 685.82184L764.99615 685.82184C 767.8543 685.82184 770.4953 687.3466 771.9244 689.82184C 773.3534 692.29706 773.3534 695.3466 771.9244 697.82184C 770.4953 700.29706 767.8543 701.82184 764.99615 701.82184z" stroke="none" fill="#CCCCCC" fill-rule="nonzero" />
        <path transform="matrix(1 0 0 1 -287.77515 -142.91814)"  d="M672.49615 436.82184L527.49615 436.82184C 523.0779 436.82184 519.49615 433.2401 519.49615 428.82184C 519.49615 424.40356 523.0779 420.82184 527.49615 420.82184L527.49615 420.82184L672.49615 420.82184C 676.9144 420.82184 680.49615 424.40356 680.49615 428.82184C 680.49615 433.2401 676.9144 436.82184 672.49615 436.82184z" stroke="none" fill="#6C63FF" fill-rule="nonzero" />
        <path transform="matrix(1 0 0 1 -287.77515 -142.91814)"  d="M423.86578 565.29584C 425.5852 566.9915 428.28986 567.16486 430.21167 565.70245C 436.0002 561.41156 441.08203 556.07043 444.08945 549.5557C 447.53552 542.0907 447.91995 532.93036 443.76508 525.83545C 440.25275 519.83777 434.05063 515.9674 427.86923 512.7894C 425.46915 511.4348 422.88385 510.43835 420.1954 509.83176C 417.47818 509.2323 414.63464 509.6911 412.24384 511.11475C 409.8502 512.61554 408.61987 515.4292 409.14325 518.20557C 406.1741 514.81793 402.37115 512.2651 398.1114 510.8C 395.42902 509.7506 392.4918 509.53766 389.6861 510.1892C 385.76352 511.30182 382.89984 514.787 381.33353 518.55145C 380.06683 521.415 379.62943 524.5765 380.07108 527.6763C 380.54108 530.7958 382.3109 533.57 384.94168 535.311C 388.1848 537.3175 392.32224 537.17285 396.04675 536.3531C 399.77127 535.5333 403.37662 534.1075 407.17322 533.74695C 410.96982 533.3864 415.1976 534.33307 417.50815 537.36707C 419.13528 539.5037 419.55316 542.2955 419.91837 544.9562L419.91837 544.9562L421.81815 558.7953C 421.9735 560.79724 422.48483 562.75543 423.32803 564.5778C 423.47412 564.84033 423.655 565.08185 423.86578 565.29584z" stroke="none" fill="#2F2E41" fill-rule="nonzero" />
	</g>
</g>
</svg>