<?xml version="1.0" standalone="no"?>
<!DOCTYPE svg PUBLIC "-//W3C//DTD SVG 1.0//EN" "http://www.w3.org/TR/2001/REC-SVG-20010904/DTD/svg10.dtd">
<svg xmlns="http://www.w3.org/2000/svg" xmlns:xlink="http://www.w3.org/1999/xlink" id="body_1" width="100" height="76">

<g transform="matrix(0.8333334 0 0 0.8351649 0 0)">
	<g transform="matrix(0.33828998 0 0 0.33828998 0.4609676 -0)">
		<g>
            <path d="M213.4414 81.0625C 214.33984 81.10156 215.16406 80.578125 215.51172 79.74609C 215.85938 78.91406 215.64844 77.953125 214.99219 77.34375C 214.9375 77.125 214.89844 76.97266 214.84375 76.75781C 214.86328 76.71094 214.88281 76.66406 214.90234 76.61719C 216.8711 71.90234 223.54297 71.9375 225.4961 76.65625C 227.22656 80.84766 229.4336 85.03906 229.97656 89.46875C 230.21094 91.421875 230.11328 93.41016 229.67578 95.33203C 233.7461 86.421875 235.85938 76.73828 235.8711 66.94141C 235.8711 64.47656 235.73828 62.023438 235.46484 59.578125C 235.23828 57.578125 234.92578 55.585938 234.52734 53.609375C 232.34766 42.89453 227.66406 32.847656 220.86719 24.300781C 217.57422 22.5 214.91406 19.726562 213.24219 16.363281C 212.63281 15.152344 212.20703 13.859375 211.96875 12.527344C 212.33594 12.574219 213.36719 6.898438 213.08594 6.550781C 213.60547 5.761719 214.52734 5.371094 215.09375 4.601562C 217.90625 0.777344 221.77734 1.445312 223.79688 6.640625C 228.11719 8.832031 228.16016 12.457031 225.50781 15.945312C 223.82422 18.164062 223.58984 21.167969 222.10938 23.542969C 222.26562 23.742188 222.42188 23.929688 222.57422 24.125C 225.35547 27.714844 227.78125 31.570312 229.8125 35.63672C 229.23828 31.125 230.08594 25.695312 231.53516 22.191406C 233.17969 18.207031 236.26953 14.84375 238.98438 11.398438C 242.25 7.257812 248.94922 9.066406 249.52344 14.316406C 249.52734 14.367188 249.53516 14.417969 249.53906 14.46875C 249.13672 14.695312 248.74219 14.9375 248.35547 15.195312C 247.35938 15.859375 246.875 17.074219 247.13281 18.242188C 247.39062 19.417969 248.33984 20.308594 249.52344 20.496094L249.52344 20.496094L249.58594 20.503906C 249.4375 21.964844 249.1836 23.410156 248.82422 24.832031C 252.3086 38.371094 244.77734 43.304688 234.02734 43.523438C 233.78906 43.648438 233.5586 43.76953 233.32031 43.882812C 235.36328 49.695312 236.64453 55.742188 237.1289 61.882812C 237.40625 65.50391 237.39453 69.140625 237.08203 72.76172L237.08203 72.76172L237.10156 72.62891C 237.8789 68.609375 240.01953 64.98047 243.15625 62.351562C 247.8164 58.51172 254.39844 57.097656 259.42578 54.003906C 261.84375 52.51953 264.9453 54.441406 264.52734 57.257812C 264.51562 57.30078 264.51172 57.34375 264.5039 57.390625C 263.7539 57.69922 263.02344 58.05078 262.3203 58.44922C 261.91406 58.67578 261.52344 58.91797 261.1328 59.17578C 260.14062 59.84375 259.65234 61.054688 259.91406 62.226562C 260.17188 63.398438 261.1211 64.28906 262.3047 64.47656L262.3047 64.47656L262.36328 64.484375C 262.40234 64.48828 262.4414 64.49609 262.48047 64.5C 261.20312 67.57031 259.40625 70.39844 257.17188 72.85156C 254.98828 84.671875 245.625 85.79297 235.60547 82.35156L235.60547 82.35156L235.59766 82.35156C 234.4961 87.14453 232.90625 91.8125 230.84375 96.27734L230.84375 96.27734L213.86719 96.27734C 213.80469 96.08984 213.75 95.89453 213.69531 95.703125C 215.26953 95.80078 216.84375 95.70703 218.39453 95.421875C 217.13281 93.87109 215.875 92.30859 214.61719 90.75781C 214.58594 90.72656 214.5625 90.69531 214.53516 90.66406C 213.89453 89.87109 213.25 89.08203 212.61328 88.28516C 212.57812 85.85547 212.85547 83.42578 213.4414 81.0625z" stroke="none" fill="#F2F2F2" fill-rule="nonzero" />
            <path d="M267.95703 37.44922C 264.79688 25.890625 290.2578 15.984375 296.9453 25.289062C 297.875 23.964844 301.3125 23.164062 302.88672 23.566406C 304.46484 23.976562 305.78906 24.988281 307.08203 25.972656C 308.86328 27.339844 310.70703 28.761719 311.79688 30.734375C 312.89453 32.69922 313.0664 35.375 311.58594 37.078125C 310.41406 38.4375 306.95312 39.3125 305.1953 39.66797C 303.96094 39.921875 302.9297 40.125 302.03906 40.26953C 301.23438 39.101562 300.85938 37.683594 300.98828 36.26953C 299.77734 37.085938 298.9922 38.410156 298.85547 39.875C 298.83203 40.171875 308.78906 76.95703 308.78906 76.95703C 307.59375 77.640625 306.33203 78.20703 305.03125 78.65625C 302.45312 74.69531 300.47656 70.375 299.16797 65.83203C 298.8672 68.87109 298.90625 71.93359 299.28125 74.96094C 299.48047 76.66016 299.76562 78.34766 300.13672 80.015625C 288.3047 82.58203 270.5 81.73828 262.7578 70.83203C 262.7539 70.78516 262.75 70.74219 262.75 70.69531C 262.73828 69.80859 262.10156 69.05469 261.23047 68.89453C 260.35938 68.73828 259.5 69.22266 259.1797 70.046875C 258.9922 70.52734 258.8164 70.94531 258.66406 71.27734C 256.40625 63.179688 259.32812 53.804688 267.95703 37.44922z" stroke="none" fill="#2F2E41" fill-rule="nonzero" />
            <path d="M247.8125 231.14453L247.8125 231.51953C 247.79688 231.39453 247.79688 231.26562 247.8125 231.14453z" stroke="none" fill="#2F2E41" fill-rule="nonzero" />
            <path d="M259.40234 165.75781C 259.70703 165.67578 260.0078 165.61719 260.3203 165.57812C 259.96484 165.63672 259.66016 165.69531 259.40234 165.75781z" stroke="none" fill="#2F2E41" fill-rule="nonzero" />
            <path d="M259.13672 165.82812C 259.21875 165.80469 259.3047 165.78125 259.40234 165.75781C 259.3164 165.78125 259.22656 165.79688 259.13672 165.82812z" stroke="none" fill="#2F2E41" fill-rule="nonzero" />
            <path d="M344.77344 269L301.38672 269C 300.11328 267.97656 299.72266 266.19922 300.46094 264.73438C 301.64062 262.0078 299.3164 259.51562 299.3164 259.51562C 297.71875 257.6289 297.16016 255.07031 297.83203 252.6875C 298.98047 248.65625 294.47656 237.28516 294.47656 237.28516C 294.47656 237.28516 292.05078 251.97266 289.07422 269L289.07422 269L247.8125 269C 246.40625 266.59375 246.40625 263.61328 247.8125 261.20312C 250.21875 257.11328 247.8125 256.32812 247.8125 256.32812C 247.8125 256.32812 245.40625 251.7461 247.8125 248.42188C 250.21875 245.09766 247.8125 231.51953 247.8125 231.51953C 247.90234 232.1211 248.58984 231.02734 249.64453 228.74219C 251.25 225.25781 253.69922 218.9961 256.1836 211.72656C 257.95312 206.54297 259.7422 200.83203 261.23438 195.2539L261.23438 195.2539L261.23828 195.2539C 261.6289 193.78516 262 192.33203 262.35156 190.89453C 263.03516 188.07031 263.6211 185.32812 264.0664 182.75C 265.03516 177.20312 265.35547 172.4375 264.61328 169.33594C 263.9961 166.75781 262.64453 165.33594 260.3203 165.57812C 261.5664 165.3711 263.39453 165.17578 265.64844 164.98828C 266.05078 164.95703 266.47266 164.92578 266.90625 164.88672C 283.6953 163.61328 319.71484 162.88281 319.71484 162.88281L319.71484 162.88281L330.7461 182.71484L344.71875 207.83594C 344.71875 207.83594 344.33984 241.53516 344.77344 269z" stroke="none" fill="#2F2E41" fill-rule="nonzero" />
            <path d="M298.46484 77.16797L273.04688 71.75391L268 81.953125L251.0039 91.828125C 251.0039 91.828125 261.96094 136.79297 261.89453 143.11719C 261.73438 159.17188 236.14453 195.16016 255.47656 192.39062C 274.8047 189.625 278.73047 178.02734 284.9375 179.86328C 290.53516 181.51562 297.3711 188.875 301.9453 183.61328C 306.51562 178.34766 308.1328 184.42578 311.02344 184.63672C 312.39844 184.73438 311.5703 177.98828 315.03125 184.84375C 318.48828 191.69922 336.83203 182.47266 330.61328 176.23047C 320.26172 165.83984 318.15625 89.22656 318.15625 89.22656L318.15625 89.22656L306.6289 85.66406L298.46484 77.16797z" stroke="none" fill="#E6E6E6" fill-rule="nonzero" />
            <path d="M250.52344 240.45703C 252.64844 237.91406 252.36719 234.13672 249.89453 231.9375C 249.64453 231.72656 249.38672 231.53516 249.10938 231.36328L249.10938 231.36328L253.35938 210.42969L243.53516 204.52734L240.80469 233.83984C 239.5586 236.3164 240.13281 239.32422 242.20312 241.16016C 244.63281 243.27734 248.3125 243.01562 250.41797 240.57812C 250.45312 240.53906 250.48828 240.4961 250.52344 240.45703z" stroke="none" fill="#A0616A" fill-rule="nonzero" />
            <path d="M281.02734 130.09375C 280.96484 129.42578 280.11328 129.11719 278.92578 128.69531C 277.73438 128.32812 276.60156 127.78906 275.5664 127.09766C 272.9414 125.19531 273.97656 123.203125 275.40234 120.453125C 275.6836 119.921875 275.96875 119.36328 276.2422 118.78516C 277.05078 117.07031 275.76562 110.00391 272.41016 97.76953C 271.3789 94.00391 271.3828 91.34375 270.67188 89.58203C 269.95703 87.81641 268.53516 86.94922 264.65234 86.765625C 259.96094 86.52734 255.36328 88.16797 251.875 91.32422C 251.78125 91.40625 251.6836 91.5 251.58984 91.58594C 251.41016 91.75391 251.23828 91.92578 251.0664 92.09766C 247.83984 95.359375 245.99219 99.74219 245.91016 104.33594L245.91016 104.33594L245.89453 105.11719L245.09375 142.49219L242.84375 175.28516L239.74219 220.46094L242.03906 220.57422L251.21094 221.03125L252.32422 221.08594L254.96094 209.97656L258.13672 196.60547L259.3047 191.6914L262.92188 176.45703L264.61328 169.33594L265.64844 164.98828L266.0664 163.21484L268.1172 154.58203C 268.16406 154.40234 272.8828 135.71094 278.3203 132.58594C 280.35547 131.42188 281.08594 130.7461 281.02734 130.09375z" stroke="none" fill="#E6E6E6" fill-rule="nonzero" />
            <path d="M342.0703 240.23047C 339.6836 237.9336 339.5586 234.14844 341.78125 231.6914C 342 231.45703 342.2422 231.23828 342.5 231.04297L342.5 231.04297L336.03516 210.6875L345.17188 203.76172L351.02344 232.60547C 352.52734 234.9375 352.27344 237.98828 350.41016 240.03906C 348.22656 242.40234 344.53906 242.53906 342.1836 240.34375C 342.14453 240.3086 342.10547 240.26953 342.0703 240.23047z" stroke="none" fill="#A0616A" fill-rule="nonzero" />
            <path d="M346.53906 196.0586C 346.53906 196.0586 339.41016 170.89453 341.58594 168.16797C 343.7578 165.44531 337.33984 164.91016 340.10547 159.83594C 342.8711 154.76172 339.0547 153.91406 339.0547 153.91406L339.0547 153.91406L336.98438 142.25L333.27734 113.59375L333.16406 112.74219L332.08984 104.40625C 331.48438 99.59375 328.94922 95.24219 325.07812 92.33984C 324.98047 92.265625 324.8789 92.19531 324.77734 92.12109C 324.3203 91.78906 323.85938 91.484375 323.3828 91.203125C 319.82422 89.10156 315.65234 88.30469 311.57422 88.953125C 303.89453 90.15234 306.28516 93.03125 305.03516 100.73047C 303.01562 113.25781 302.48828 120.421875 303.47656 122.03906C 303.8125 122.58594 304.15625 123.10547 304.4922 123.60547C 306.20312 126.19141 307.4453 128.05469 305.03516 130.23438C 304.07812 131.02734 303.01562 131.6836 301.8711 132.1836C 300.73828 132.73047 299.91797 133.125 299.9297 133.80078C 299.9453 134.45703 300.7422 135.04688 302.88672 135.98438C 305.48047 137.1211 308.26562 141.4336 310.54688 145.83594C 312.35938 149.38281 313.97266 153.02734 315.38672 156.7539L315.38672 156.7539L335.0039 212.14062L338.20312 221.17188L339.3086 220.9961L348.375 219.55078L350.64453 219.1914L346.53906 196.0586z" stroke="none" fill="#E6E6E6" fill-rule="nonzero" />
            <path d="M308.47656 50.554688C 308.47656 62.05078 299.1914 71.37109 287.73828 71.37109C 276.28516 71.37109 267 62.05078 267 50.554688C 267 39.058594 276.28516 29.742188 287.73828 29.742188C 299.1914 29.742188 308.47656 39.058594 308.47656 50.554688z" stroke="none" fill="#A0616A" fill-rule="nonzero" />
            <path d="M256.6328 39.070312C 253.48047 27.515625 278.9414 17.609375 285.625 26.914062C 286.5586 25.589844 289.9922 24.785156 291.5703 25.191406C 293.14844 25.597656 294.47266 26.613281 295.76562 27.59375C 297.54297 28.964844 299.38672 30.386719 300.47656 32.359375C 301.57812 34.320312 301.7461 37 300.26562 38.703125C 299.09766 40.058594 295.63672 40.933594 293.875 41.289062C 292.64453 41.546875 291.60938 41.746094 290.71875 41.89453C 289.91016 40.722656 289.54297 39.308594 289.66797 37.890625C 288.45703 38.710938 287.67578 40.035156 287.53516 41.496094C 287.5078 41.796875 297.47266 78.58203 297.47266 78.58203C 296.27344 79.265625 295.01562 79.83203 293.71094 80.27734C 291.1328 76.32031 289.15625 72 287.85156 67.453125C 287.55078 70.49219 287.58984 73.55859 287.96094 76.58594C 288.16406 78.28516 288.44922 79.96875 288.8203 81.640625C 276.98438 84.20703 259.1836 83.36328 251.4375 72.45703C 251.4336 72.41016 251.4336 72.36719 251.4336 72.32031C 251.42188 71.43359 250.78516 70.67578 249.91406 70.51953C 249.04297 70.36328 248.1836 70.84375 247.86328 71.671875C 247.67188 72.15234 247.5 72.56641 247.34375 72.90234C 245.08984 64.80469 248.00781 55.429688 256.6328 39.070312z" stroke="none" fill="#2F2E41" fill-rule="nonzero" />
            <path d="M153.78516 110.99609C 152.89062 111.03906 152.0664 110.51172 151.71875 109.67969C 151.3711 108.84766 151.57812 107.88672 152.23828 107.27734C 152.29297 107.0625 152.33203 106.90625 152.38672 106.69531C 152.36328 106.64844 152.34766 106.59766 152.32812 106.55469C 150.35547 101.83984 143.6875 101.875 141.73438 106.58984C 140 110.78125 137.79688 114.97266 137.2539 119.40234C 137.01562 121.359375 137.11328 123.34375 137.55078 125.265625C 133.48438 116.359375 131.3711 106.67578 131.35938 96.875C 131.35938 94.41406 131.49219 91.95703 131.76562 89.51172C 131.99219 87.51172 132.30469 85.51953 132.69922 83.546875C 134.88281 72.828125 139.5664 62.785156 146.36328 54.23828C 149.65234 52.4375 152.3164 49.660156 153.98828 46.296875C 154.59375 45.085938 155.02344 43.796875 155.26172 42.460938C 154.89062 42.507812 153.86328 36.83203 154.14453 36.48828C 153.625 35.69922 152.69922 35.308594 152.13281 34.539062C 149.32422 30.710938 145.45312 31.378906 143.4336 36.578125C 139.11328 38.765625 139.07031 42.39453 141.72266 45.878906C 143.40625 48.101562 143.64062 51.10547 145.11719 53.48047C 144.96484 53.67578 144.8086 53.86328 144.65625 54.0625C 141.875 57.648438 139.44922 61.503906 137.41797 65.57031C 137.99219 61.0625 137.14453 55.628906 135.69531 52.132812C 134.05078 48.14453 130.96094 44.78125 128.2461 41.335938C 124.98047 37.191406 118.27734 39 117.70703 44.25C 117.69922 44.30078 117.69531 44.351562 117.69141 44.402344C 118.09375 44.632812 118.48828 44.875 118.875 45.132812C 119.87109 45.796875 120.35547 47.01172 120.09375 48.183594C 119.83984 49.35547 118.890625 50.246094 117.70703 50.429688L117.70703 50.429688L117.64453 50.4375C 117.79297 51.898438 118.046875 53.347656 118.40625 54.76953C 114.921875 68.30469 122.44922 73.23828 133.20312 73.46094C 133.4375 73.58203 133.66797 73.70703 133.91016 73.82031C 131.86719 79.62891 130.58594 85.67969 130.09766 91.81641C 129.82031 95.44141 129.83594 99.07422 130.14453 102.69531L130.14453 102.69531L130.1289 102.57031C 129.34766 98.54297 127.21094 94.91406 124.07422 92.28906C 119.41016 88.44531 112.83203 87.03125 107.80078 83.94141C 105.38281 82.45703 102.28516 84.375 102.703125 87.19531C 102.71094 87.234375 102.71875 87.28125 102.72656 87.32422C 103.47656 87.63281 104.20703 87.98828 104.91016 88.38281C 105.31641 88.609375 105.70703 88.85547 106.09766 89.11328C 107.08984 89.77734 107.578125 90.99219 107.3125 92.16016C 107.05859 93.33594 106.109375 94.22656 104.92578 94.41016L104.92578 94.41016L104.86719 94.41797C 104.828125 94.42578 104.78906 94.43359 104.74609 94.4375C 106.02734 97.50781 107.82031 100.33203 110.05859 102.78906C 112.23828 114.609375 121.60547 115.73047 131.625 112.28906L131.625 112.28906L131.6289 112.28906C 132.73047 117.08203 134.32422 121.74609 136.38672 126.21484L136.38672 126.21484L153.36328 126.21484C 153.42188 126.02344 153.47656 125.828125 153.53125 125.640625C 151.96094 125.73828 150.38281 125.64453 148.83594 125.359375C 150.09766 123.80469 151.35547 122.24609 152.61328 120.69141C 152.64062 120.66016 152.66797 120.63281 152.6914 120.60156C 153.33594 119.80469 153.98047 119.015625 154.61719 118.22266C 154.65234 115.78906 154.3711 113.359375 153.78516 110.99609z" stroke="none" fill="#F2F2F2" fill-rule="nonzero" />
            <path d="M74.56641 25.289062C 74.17969 26.191406 62.296875 26.09375 61.753906 26.894531C 57.558594 33.09375 72.68359 59.460938 68.48828 65.66406L68.48828 65.66406L67.90234 66.36328C 69.27344 65.73047 70.58594 64.98828 71.83594 64.13672C 71.94531 61.597656 72.05859 59.046875 72.17578 56.51172C 73.43359 58.125 74.44922 59.914062 75.19141 61.82422C 76.16406 61.132812 76.96875 59.851562 81.15234 57.33203C 82.85156 55.460938 84.80469 53.847656 86.95703 52.535156L86.95703 52.535156L74.56641 25.289062z" stroke="none" fill="#2F2E41" fill-rule="nonzero" />
            <path d="M83.19141 76.07422C 80.53125 74.33594 77.203125 73.99219 74.24609 75.14844C 71.28516 76.30859 69.06641 78.828125 68.28516 81.921875L68.28516 81.921875L50.226562 129.14453L19.191406 111.45703C 18.914062 107.28516 15.988281 103.76953 11.949219 102.75C 7.910156 101.73047 3.679688 103.4375 1.464844 106.97656C -0.746094 110.51953 -0.4375 115.08984 2.234375 118.29297C 4.910156 121.5 9.332031 122.61328 13.199219 121.046875C 19.730469 128.05078 48.070312 156.75781 59.80078 145.54297C 69.66016 136.11719 83.890625 99.57422 87.31641 86.953125C 88.44141 82.81641 86.77734 78.41797 83.19141 76.07422z" stroke="none" fill="#FFB6B6" fill-rule="nonzero" />
            <path d="M49.285156 147.52344L54.98828 173.375L96.65234 177.15625L100.484375 154.64453L49.285156 147.52344z" stroke="none" fill="#FFB6B6" fill-rule="nonzero" />
            <path d="M112.93359 213.8125C 112.91406 214.1836 112.89453 214.55078 112.86719 214.92188C 112.46875 220.27734 112.00781 226.45703 111.51172 233.22656C 110.734375 243.96875 109.86328 256.20312 108.984375 269L108.984375 269L21.589844 269L38.539062 217.86719C 38.539062 217.86719 45.378906 214.08594 41.898438 207.72656C 38.414062 201.375 45.26953 206.4375 45.335938 197.36719C 45.39453 188.29297 51.539062 178.63672 51.539062 178.63672L51.539062 178.63672L52.55078 164.89844L53.121094 164.91016L98.60156 165.66797L99.43359 165.6875L100.83203 177.48047C 109.3125 187.60938 113.63672 200.60156 112.93359 213.8125z" stroke="none" fill="#2F2E41" fill-rule="nonzero" />
            <path d="M75.29297 63.546875L96.03125 62.472656L105.66406 77.75391C 105.66406 77.75391 123.78906 80.79297 122.53125 102.23047C 121.27734 123.671875 100.484375 142.48047 100.484375 142.48047L100.484375 142.48047L101.37109 139.42188L99.82422 143.84766L100.02344 146.33203L102.12891 148.97266L102.34375 151.6914L100.484375 156C 100.97656 156.79688 100.97656 157.80469 100.484375 158.60547C 99.98828 159.39844 99.08594 159.84375 98.15625 159.7539L98.15625 159.7539L68.19141 156.73828C 67.50781 154.85547 66.96094 152.60156 64.22656 156.35156L64.22656 156.35156L61.402344 156.08203L49.66797 154.9375L48.976562 152.41016C 48.179688 149.5039 48.765625 146.39062 50.5625 143.97266C 49.54297 140.76953 49.808594 137.29297 51.308594 134.28516L51.308594 134.28516L51.36328 134.17188L52.609375 133.1289C 52.609375 133.1289 38.976562 112.56641 54.625 97.08594L54.625 97.08594L60.910156 86.36719L67.93359 77.75781L75.29297 63.546875z" stroke="none" fill="#6C63FF" fill-rule="nonzero" />
            <path d="M100.12109 34.785156C 100.12109 45.691406 91.31641 54.53125 80.45703 54.53125C 69.59375 54.53125 60.789062 45.691406 60.789062 34.785156C 60.789062 23.882812 69.59375 15.046875 80.45703 15.046875C 91.31641 15.046875 100.12109 23.882812 100.12109 34.785156z" stroke="none" fill="#FFB6B6" fill-rule="nonzero" />
            <path d="M95.390625 63.226562C 93.79297 61.882812 92.67578 60.046875 92.22266 58C 91.85547 60.484375 91.953125 63.01172 92.5 65.45703C 91.4375 66.26172 90.40234 67.02734 89.42578 67.71875C 88.6875 65.80859 87.671875 64.01953 86.41406 62.40625C 86.296875 64.94531 86.18359 67.49219 86.07422 70.03516C 84.82422 70.87891 83.50781 71.625 82.13672 72.26172L82.13672 72.26172L82.72656 71.5625C 86.91797 65.35156 76.0625 53.933594 80.25781 47.734375C 81.43359 46.003906 76.11719 32.28125 72.06641 31.664062C 68.46484 31.117188 68.61719 32.160156 65.125 32.92578C 64.76172 31.40625 64.19922 29.941406 63.453125 28.574219C 63.648438 30.101562 63.601562 31.648438 63.3125 33.15625C 62.07422 33.20703 61.09375 32.414062 59.777344 32.210938C 51.34375 30.914062 52.203125 21.761719 54.546875 18.859375C 56.902344 15.964844 64.71484 15.101562 68.31641 14.15625C 68.64844 13.835938 69.390625 14.039062 69.71875 13.734375C 76.625 7.386719 85.86328 6.335938 94.17578 9.148438C 103.03516 12.148438 108.5625 17.949219 111.39453 26.894531L111.39453 26.894531L112.21094 34.058594C 112.94141 36.359375 112.02344 47.070312 111.39453 49.402344C 108.96875 58.46875 103.78906 53.945312 95.390625 63.226562z" stroke="none" fill="#2F2E41" fill-rule="nonzero" />
            <path d="M124.06641 156.75L123.29297 96.22266C 123.20703 90.88672 118.875 86.60547 113.5625 86.60547C 110.890625 86.60547 108.33203 87.71094 106.49609 89.65234C 104.66016 91.59766 103.69531 94.21875 103.83984 96.89453L103.83984 96.89453L106.5625 159.74219L106.61719 198C 103.328125 199.39844 101.26172 202.71875 101.44922 206.29688C 101.640625 209.88281 104.03906 212.96484 107.45703 214.0039C 110.875 215.05469 114.58203 213.83984 116.72266 210.96875C 118.87109 208.10156 118.99609 204.1914 117.04297 201.1875L117.04297 201.1875L124.06641 156.75z" stroke="none" fill="#FFB6B6" fill-rule="nonzero" />
            <path d="M225.5625 235.05469C 225.5625 235.05469 224.36719 256.67578 223.82031 269.0039L223.82031 269.0039L182.59375 269.0039C 181.75 257.78125 181.46094 249.53906 181.46094 249.53906L181.46094 249.53906L179.20703 269.0039L137.53906 269.0039L134.95312 232.95312L147.4375 201.89453C 147.4375 201.89453 215.08984 197.1836 221.36328 203.16016C 227.63672 209.1289 225.5625 235.05469 225.5625 235.05469z" stroke="none" fill="#2F2E41" fill-rule="nonzero" />
            <path d="M211.6289 30.609375C 211.6289 43.09375 201.54688 53.210938 189.10938 53.210938C 176.67578 53.210938 166.59766 43.09375 166.59766 30.609375C 166.59766 18.125 176.67578 8.007812 189.10938 8.007812C 201.54688 8.007812 211.6289 18.125 211.6289 30.609375z" stroke="none" fill="#FFB6B6" fill-rule="nonzero" />
            <path d="M215.35938 23.265625C 213.04688 24.324219 211.54688 31.992188 209.73047 30.210938C 207.91016 28.425781 208.03516 26.109375 205.58203 25.449219C 203.60156 24.917969 201.47266 25.527344 199.66797 26.484375C 199.34766 26.65625 199.03125 26.839844 198.72656 27.023438C 198.52734 26.890625 198.32812 26.765625 198.10938 26.644531C 196.5 25.777344 194.60938 25.5625 192.84375 26.050781C 194.24219 26.519531 195.45312 27.417969 196.3164 28.617188C 195.71094 29.023438 195.09766 29.429688 194.47266 29.792969C 189.24219 32.82422 181.80078 26.234375 176.29688 23.761719C 179.7461 30.257812 178.04688 32.945312 175.05469 39.664062L175.05469 39.664062L174.95312 40.04297C 175.11719 38.359375 169.92969 37.10547 170.23047 39.476562C 170.44531 41.160156 171.89453 44.898438 172.70703 46.382812C 166.91797 39.66797 162.96484 31.449219 163.80078 22.964844C 163.98047 21.183594 163.92578 19.304688 164.84375 17.761719C 165.75781 16.222656 167.66797 15.144531 169.35938 15.730469C 169.0664 10.21875 171.8164 4.996094 176.51172 2.128906C 181.20703 -0.738281 187.09766 -0.78125 191.83594 2.015625C 193.9961 3.285156 195.80078 5.089844 197.77734 6.640625C 199.76172 8.191406 202.04297 9.546875 204.5586 9.675781C 206.15234 9.753906 207.88281 9.363281 209.25 10.191406C 210.83594 11.152344 211.10938 13.164062 211.34375 15.101562C 209.92969 15.242188 208.58984 15.800781 207.4961 16.710938C 208.96094 16.5625 210.42969 16.875 211.70703 17.613281C 211.73047 17.625 211.7539 17.640625 211.77344 17.65625C 212.61328 20.855469 212.53125 21.5625 215.35938 23.265625z" stroke="none" fill="#2F2E41" fill-rule="nonzero" />
            <path d="M137.63281 212.83203C 156.8125 190.30078 150.33203 161.64453 142.72656 132.71875L142.72656 132.71875L144.17188 89.984375C 144.3164 85.73047 146.51562 81.8125 150.0664 79.484375L150.0664 79.484375L169.64062 66.64844L177.25781 55.589844L198.26172 57.695312L209.91016 70.05859L222.80078 79.9375C 229.41016 85.00391 232.48828 93.45703 230.69531 101.60547L230.69531 101.60547L218.35938 157.60938C 218.35938 157.60938 223.51953 186.64062 220.3711 189.84766C 217.22266 193.05078 209.10938 189.84766 215.53906 193.44531C 223.26172 197.76562 230.28125 196.96875 226.375 200.89062C 222.46875 204.8125 227.41406 210.26562 227.41406 210.26562L227.41406 210.26562L137.63281 212.83203z" stroke="none" fill="#6C63FF" fill-rule="nonzero" />
            <path d="M145.83594 245.57422L149.03125 222.71484L136.27734 219.0586L133.7539 243.34766C 130.82031 246.04688 130.42188 250.54297 132.82422 253.72266C 135.23047 256.89844 139.65625 257.71484 143.02734 255.60156C 146.40625 253.48828 147.6211 249.14062 145.83594 245.57422z" stroke="none" fill="#FFB6B6" fill-rule="nonzero" />
            <path d="M170.1211 70.76953C 170.1211 70.76953 133.8086 82.63281 132.9414 91.30859C 132.07812 99.98828 132.36719 105.30078 128.53516 140.02734L128.53516 140.02734L128.73438 233.58203C 128.73438 233.58203 153.08203 238.8125 150.58594 233.22266C 148.08594 227.6289 148.95703 224.9961 148.95703 224.9961C 148.95703 224.9961 154.17969 222.92578 152.8711 216.36328C 151.5625 209.79297 158.11328 177.25 158.11328 177.25L158.11328 177.25L162.25 118.87891L170.1211 70.76953z" stroke="none" fill="#6C63FF" fill-rule="nonzero" />
            <path d="M214.88672 244.36328L213.1875 221.34375L226.15234 218.53125L227.08984 242.9336C 229.83984 245.82031 229.94531 250.33203 227.33984 253.34766C 224.73047 256.36328 220.26172 256.8828 217.03516 254.55078C 213.80078 252.22266 212.875 247.80469 214.88672 244.36328z" stroke="none" fill="#FFB6B6" fill-rule="nonzero" />
            <path d="M202.03906 68.33984C 202.03906 68.33984 237.4961 82.55469 237.79688 91.27344C 238.09375 99.99219 237.46094 105.27344 239.02344 140.17969L239.02344 140.17969L232.73047 233.51953C 232.73047 233.51953 208.09766 237.14453 210.95312 231.72656C 213.8086 226.3086 213.11328 223.625 213.11328 223.625C 213.11328 223.625 208.03906 221.21875 209.76953 214.75C 211.5 208.28516 207.08203 175.3789 207.08203 175.3789L207.08203 175.3789L206.75781 116.859375L202.03906 68.33984z" stroke="none" fill="#6C63FF" fill-rule="nonzero" />
		</g>
	</g>
</g>
</svg>